<svg width="115" height="34" viewBox="0 0 115 34" fill="none" xmlns="http://www.w3.org/2000/svg">
<path d="M0 13.6V16.2H2.5V13.6H0Z" fill="#756157" fill-opacity="0.3"/>
<path d="M11.6 5.20001C10 5.20001 8.8 5.90001 8 6.90001H7.9V0.700012H5.9V16.2H7.9V10.9C7.9 8.80001 9.2 7.30001 11.2 7.30001C13 7.30001 14.1 8.70001 14.1 10.5V16.2H16.1V10.1C16.2 7.10001 14.3 5.20001 11.6 5.20001Z" fill="#756157" fill-opacity="0.3"/>
<path d="M26.6 5.50001H21.8V1.80001H19.8V5.60001H17.9V7.60001H19.8V13.6C19.8 15.3 20.8 16.3 22.5 16.3H26.6V14.3H22.9C22.2 14.3 21.8 13.9 21.8 13.2V7.50001H26.6V5.50001Z" fill="#756157" fill-opacity="0.3"/>
<path d="M41.1 5.30001C39.5 5.30001 38.2 6.10001 37.6 7.40001H37.5C36.9 6.20001 35.7 5.30001 34.1 5.30001C32.7 5.30001 31.6 6.10001 31 7.10001H30.9V5.50001H29V16.1H31V10.7C31 8.70001 32 7.20001 33.6 7.20001C35.1 7.20001 36 8.20001 36 9.80001V16.1H38V10.5C38 8.10001 39.4 7.20001 40.6 7.20001C42.1 7.20001 43 8.20001 43 9.80001V16.1H45V9.60001C45.1 7.10001 43.6 5.30001 41.1 5.30001Z" fill="#756157" fill-opacity="0.3"/>
<path d="M47.8 13.4C47.8 15.1 48.8 16.1 50.6 16.1H52.6V14.1H50.9C50.2 14.1 49.8 13.7 49.8 13V0.700012H47.8V13.4Z" fill="#756157" fill-opacity="0.3"/>
<path d="M28.9 20.4C28 19.3 26.7 18.6 25 18.6C21.9 18.6 19.6 20.9 19.6 24.2C19.6 27.5 21.9 29.8 25 29.8C26.8 29.8 28 29 28.8 27.9H28.9V29.5H30.9V18.9H28.9V20.4ZM25.3 27.8C23.1 27.8 21.7 26.2 21.7 24.2C21.7 22.2 23.1 20.6 25.3 20.6C27.5 20.6 28.9 22.2 28.9 24.2C28.9 26.1 27.5 27.8 25.3 27.8Z" fill="#756157" fill-opacity="0.3"/>
<path d="M44.2 22.7C43.7 20.3 41.6 18.6 38.8 18.6C35.4 18.6 33.2 21.1 33.2 24.2C33.2 27.3 35.4 29.8 38.8 29.8C41.6 29.8 43.7 28 44.2 25.6H42.1C41.7 26.9 40.4 27.9 38.8 27.9C36.6 27.9 35.2 26.3 35.2 24.3C35.2 22.3 36.6 20.7 38.8 20.7C40.4 20.7 41.6 21.7 42.1 22.9H44.2V22.7Z" fill="#756157" fill-opacity="0.3"/>
<path d="M55.1 20.4C54.2 19.3 52.9 18.6 51.2 18.6C48.1 18.6 45.8 20.9 45.8 24.2C45.8 27.5 48.1 29.8 51.2 29.8C53 29.8 54.2 29 55 27.9H55.1V29.5H57.1V18.9H55.1V20.4ZM51.5 27.8C49.3 27.8 47.9 26.2 47.9 24.2C47.9 22.2 49.3 20.6 51.5 20.6C53.7 20.6 55.1 22.2 55.1 24.2C55.1 26.1 53.6 27.8 51.5 27.8Z" fill="#756157" fill-opacity="0.3"/>
<path d="M68.7 20.5C67.8 19.4 66.5 18.6 64.8 18.6C61.7 18.6 59.4 20.9 59.4 24.2C59.4 27.5 61.6 29.8 64.8 29.8C66.5 29.8 67.8 29 68.6 28H68.7V29.5H70.7V14.1H68.7V20.5ZM65.1 27.8C62.9 27.8 61.5 26.2 61.5 24.2C61.5 22.2 62.9 20.6 65.1 20.6C67.3 20.6 68.7 22.2 68.7 24.2C68.6 26.2 67.2 27.8 65.1 27.8Z" fill="#756157" fill-opacity="0.3"/>
<path d="M78.3 18.6C75 18.6 72.8 21.1 72.8 24.2C72.8 27.2 74.9 29.8 78.3 29.8C80.8 29.8 82.8 28.5 83.5 26.2H81.4C80.9 27.2 79.8 27.8 78.4 27.8C76.5 27.8 75.1 26.5 75 24.9H83.8C84 21.3 81.8 18.6 78.3 18.6ZM78.3 20.5C80 20.5 81.3 21.5 81.6 23.1H75.1C75.4 21.6 76.6 20.5 78.3 20.5Z" fill="#756157" fill-opacity="0.3"/>
<path d="M98.2 18.6C96.6 18.6 95.3 19.4 94.6 20.6H94.5C93.9 19.4 92.7 18.6 91.1 18.6C89.7 18.6 88.6 19.3 88 20.4V18.9H86.1V29.5H88.1V24.1C88.1 22.1 89.1 20.7 90.7 20.6C92.2 20.6 93.1 21.6 93.1 23.2V29.5H95.1V23.9C95.1 21.5 96.5 20.6 97.7 20.6C99.2 20.6 100.1 21.6 100.1 23.2V29.5H102.1V23C102.2 20.4 100.7 18.6 98.2 18.6Z" fill="#756157" fill-opacity="0.3"/>
<path d="M109.4 27.7L105.8 18.8H103.6L108.4 30.4C108.1 31.3 107.7 31.6 106.7 31.6H104.2V33.6H106.7C108.5 33.6 109.5 32.8 110.2 31L114.9 18.8H112.8L109.4 27.7Z" fill="#756157" fill-opacity="0.3"/>
</svg>
