<svg width="115" height="34" viewBox="0 0 115 34" fill="none" xmlns="http://www.w3.org/2000/svg">
<path d="M0 13.8V16.4H2.5V13.8H0Z" fill="#756157"/>
<path d="M11.6 5.40002C10 5.40002 8.8 6.10002 8 7.10002H7.9V0.900024H5.9V16.4H7.9V11.1C7.9 9.00002 9.2 7.50002 11.2 7.50002C13 7.50002 14.1 8.90002 14.1 10.7V16.4H16.1V10.3C16.2 7.30002 14.3 5.40002 11.6 5.40002Z" fill="#756157"/>
<path d="M26.6 5.70002H21.8V2.00002H19.8V5.80002H17.9V7.80002H19.8V13.8C19.8 15.5 20.8 16.5 22.5 16.5H26.6V14.5H22.9C22.2 14.5 21.8 14.1 21.8 13.4V7.70002H26.6V5.70002Z" fill="#756157"/>
<path d="M41.1 5.50002C39.5 5.50002 38.2 6.30002 37.6 7.60002H37.5C36.9 6.40002 35.7 5.50002 34.1 5.50002C32.7 5.50002 31.6 6.30002 31 7.30002H30.9V5.70002H29V16.3H31V10.9C31 8.90002 32 7.40002 33.6 7.40002C35.1 7.40002 36 8.40002 36 10V16.3H38V10.7C38 8.30002 39.4 7.40002 40.6 7.40002C42.1 7.40002 43 8.40002 43 10V16.3H45V9.80002C45.1 7.30002 43.6 5.50002 41.1 5.50002Z" fill="#756157"/>
<path d="M47.8 13.6C47.8 15.3 48.8 16.3 50.6 16.3H52.6V14.3H50.9C50.2 14.3 49.8 13.9 49.8 13.2V0.900024H47.8V13.6Z" fill="#756157"/>
<path d="M28.9 20.6C28 19.5 26.7 18.8 25 18.8C21.9 18.8 19.6 21.1 19.6 24.4C19.6 27.7 21.9 30 25 30C26.8 30 28 29.2 28.8 28.1H28.9V29.7H30.9V19.1H28.9V20.6ZM25.3 28C23.1 28 21.7 26.4 21.7 24.4C21.7 22.4 23.1 20.8 25.3 20.8C27.5 20.8 28.9 22.4 28.9 24.4C28.9 26.3 27.5 28 25.3 28Z" fill="#756157"/>
<path d="M44.2 22.9C43.7 20.5 41.6 18.8 38.8 18.8C35.4 18.8 33.2 21.3 33.2 24.4C33.2 27.5 35.4 30 38.8 30C41.6 30 43.7 28.2 44.2 25.8H42.1C41.7 27.1 40.4 28.1 38.8 28.1C36.6 28.1 35.2 26.5 35.2 24.5C35.2 22.5 36.6 20.9 38.8 20.9C40.4 20.9 41.6 21.9 42.1 23.1H44.2V22.9Z" fill="#756157"/>
<path d="M55.1 20.6C54.2 19.5 52.9 18.8 51.2 18.8C48.1 18.8 45.8 21.1 45.8 24.4C45.8 27.7 48.1 30 51.2 30C53 30 54.2 29.2 55 28.1H55.1V29.7H57.1V19.1H55.1V20.6ZM51.5 28C49.3 28 47.9 26.4 47.9 24.4C47.9 22.4 49.3 20.8 51.5 20.8C53.7 20.8 55.1 22.4 55.1 24.4C55.1 26.3 53.6 28 51.5 28Z" fill="#756157"/>
<path d="M68.7 20.7C67.8 19.6 66.5 18.8 64.8 18.8C61.7 18.8 59.4 21.1 59.4 24.4C59.4 27.7 61.6 30 64.8 30C66.5 30 67.8 29.2 68.6 28.2H68.7V29.7H70.7V14.3H68.7V20.7ZM65.1 28C62.9 28 61.5 26.4 61.5 24.4C61.5 22.4 62.9 20.8 65.1 20.8C67.3 20.8 68.7 22.4 68.7 24.4C68.6 26.4 67.2 28 65.1 28Z" fill="#756157"/>
<path d="M78.3 18.8C75 18.8 72.8 21.3 72.8 24.4C72.8 27.4 74.9 30 78.3 30C80.8 30 82.8 28.7 83.5 26.4H81.4C80.9 27.4 79.8 28 78.4 28C76.5 28 75.1 26.7 75 25.1H83.8C84 21.5 81.8 18.8 78.3 18.8ZM78.3 20.7C80 20.7 81.3 21.7 81.6 23.3H75.1C75.4 21.8 76.6 20.7 78.3 20.7Z" fill="#756157"/>
<path d="M98.2 18.8C96.6 18.8 95.3 19.6 94.6 20.8H94.5C93.9 19.6 92.7 18.8 91.1 18.8C89.7 18.8 88.6 19.5 88 20.6V19.1H86.1V29.7H88.1V24.3C88.1 22.3 89.1 20.9 90.7 20.8C92.2 20.8 93.1 21.8 93.1 23.4V29.7H95.1V24.1C95.1 21.7 96.5 20.8 97.7 20.8C99.2 20.8 100.1 21.8 100.1 23.4V29.7H102.1V23.2C102.2 20.6 100.7 18.8 98.2 18.8Z" fill="#756157"/>
<path d="M109.4 27.9L105.8 19H103.6L108.4 30.6C108.1 31.5 107.7 31.8 106.7 31.8H104.2V33.8H106.7C108.5 33.8 109.5 33 110.2 31.2L114.9 19H112.8L109.4 27.9Z" fill="#756157"/>
</svg>
